<?xml version="1.0" standalone="no"?><!DOCTYPE svg PUBLIC "-//W3C//DTD SVG 1.1//EN" "http://www.w3.org/Graphics/SVG/1.1/DTD/svg11.dtd"><svg t="1631250752782" class="icon" viewBox="0 0 1024 1024" version="1.1" xmlns="http://www.w3.org/2000/svg" p-id="2898" width="128" height="128" xmlns:xlink="http://www.w3.org/1999/xlink"><defs><style type="text/css"></style></defs><path d="M695.6 256.6H405.9V101.2c0-16.2-11.4-22.7-25.3-14.6l-370 213.7c-14 8-14 21.1 0 29.2l370 213.6c13.9 8 25.3 1.5 25.3-14.6V373.2h289.7c116.8 0 211.8 95 211.8 211.9s-95 212-211.8 212H222c-32.3 0-58.3 26-58.3 58.3s26 58.4 58.3 58.4h473.6c181.1 0 328.5-147.4 328.5-328.6 0-181.3-147.4-328.6-328.5-328.6z" fill="#ffffff" p-id="2899"></path></svg>